<?xml version="1.0" standalone="no"?>
<!DOCTYPE svg PUBLIC "-//W3C//DTD SVG 20010904//EN"
 "http://www.w3.org/TR/2001/REC-SVG-20010904/DTD/svg10.dtd">
<svg version="1.0" xmlns="http://www.w3.org/2000/svg"
 width="1024.000000pt" height="1024.000000pt" viewBox="0 0 1024.000000 1024.000000"
 preserveAspectRatio="xMidYMid meet">
<metadata>
Created by potrace 1.14, written by Peter Selinger 2001-2017
</metadata>
<g transform="translate(0.000000,1024.000000) scale(0.100000,-0.100000)"
fill="#000000" stroke="none">
<path d="M0 5120 l0 -4990 5120 0 5120 0 0 4990 0 4990 -5120 0 -5120 0 0
-4990z m3462 1625 l30 -25 871 -2 c480 -1 890 -2 912 -4 62 -3 180 -14 201
-18 11 -2 49 -7 85 -10 268 -26 680 -169 802 -278 22 -21 45 -38 49 -38 5 0
44 -37 89 -82 199 -202 286 -484 245 -788 -19 -138 -39 -200 -103 -321 -58
-111 -126 -195 -229 -283 -97 -82 -87 -74 -159 -118 -156 -94 -393 -179 -595
-213 -19 -3 -62 -12 -95 -19 -33 -8 -67 -14 -75 -14 -8 0 -91 -7 -185 -15
-224 -21 -381 -26 -856 -27 l-396 0 1 -777 1 -778 178 -3 177 -2 0 -75 0 -75
-117 0 c-65 1 -367 -2 -670 -5 l-553 -6 0 84 0 85 175 -5 175 -5 0 1921 c0
1056 3 1921 6 1921 3 0 19 -11 36 -25z"/>
<path d="M4059 6308 c-3 -808 3 -1525 13 -1549 l12 -26 245 -7 c135 -3 352 -4
481 -1 601 14 822 75 1027 282 107 107 162 214 197 383 20 97 23 138 21 260
-3 137 -27 295 -54 348 -5 9 -21 46 -37 81 -86 193 -310 371 -514 410 -36 7
-87 17 -115 23 -81 16 -361 25 -832 27 l-443 1 -1 -232z"/>
</g>
</svg>
